<mxfile host="app.diagrams.net" agent="Mozilla/5.0 (X11; Linux x86_64) AppleWebKit/537.36 (KHTML, like Gecko) Chrome/131.0.0.0 Safari/537.36" version="27.0.6">
  <diagram name="Page-1" id="TS1x9ouVPI0XJwm-VyBD">
    <mxGraphModel dx="1426" dy="764" grid="1" gridSize="10" guides="1" tooltips="1" connect="1" arrows="1" fold="1" page="1" pageScale="1" pageWidth="850" pageHeight="1100" math="0" shadow="0">
      <root>
        <mxCell id="0" />
        <mxCell id="1" parent="0" />
        <mxCell id="fm_XVG5yvehOPJzPUMoo-31" style="edgeStyle=orthogonalEdgeStyle;rounded=0;orthogonalLoop=1;jettySize=auto;html=1;entryX=0.5;entryY=0;entryDx=0;entryDy=0;" edge="1" parent="1" source="fm_XVG5yvehOPJzPUMoo-1" target="fm_XVG5yvehOPJzPUMoo-19">
          <mxGeometry relative="1" as="geometry" />
        </mxCell>
        <mxCell id="fm_XVG5yvehOPJzPUMoo-32" value="Sort and Merge Product Files" style="edgeLabel;html=1;align=center;verticalAlign=middle;resizable=0;points=[];" vertex="1" connectable="0" parent="fm_XVG5yvehOPJzPUMoo-31">
          <mxGeometry x="-0.2222" y="4" relative="1" as="geometry">
            <mxPoint as="offset" />
          </mxGeometry>
        </mxCell>
        <mxCell id="fm_XVG5yvehOPJzPUMoo-1" value="File System" style="swimlane;whiteSpace=wrap;html=1;" vertex="1" parent="1">
          <mxGeometry x="355" y="180" width="200" height="140" as="geometry">
            <mxRectangle x="350" y="180" width="100" height="30" as="alternateBounds" />
          </mxGeometry>
        </mxCell>
        <mxCell id="fm_XVG5yvehOPJzPUMoo-2" value="SortedProduct.json&lt;br&gt;&lt;div&gt;&lt;br&gt;&lt;/div&gt;&lt;div&gt;Product.json&lt;/div&gt;&lt;div&gt;ProductAssoc.json&lt;/div&gt;&lt;div&gt;Supplier.json&lt;/div&gt;&lt;div&gt;Nil.json&lt;/div&gt;" style="text;html=1;align=center;verticalAlign=middle;resizable=0;points=[];autosize=1;strokeColor=none;fillColor=none;" vertex="1" parent="fm_XVG5yvehOPJzPUMoo-1">
          <mxGeometry x="35" y="30" width="130" height="100" as="geometry" />
        </mxCell>
        <mxCell id="fm_XVG5yvehOPJzPUMoo-16" value="" style="endArrow=none;html=1;rounded=0;" edge="1" parent="fm_XVG5yvehOPJzPUMoo-1">
          <mxGeometry width="50" height="50" relative="1" as="geometry">
            <mxPoint y="60" as="sourcePoint" />
            <mxPoint x="200" y="60" as="targetPoint" />
          </mxGeometry>
        </mxCell>
        <mxCell id="fm_XVG5yvehOPJzPUMoo-6" value="Success" style="rounded=0;whiteSpace=wrap;html=1;" vertex="1" parent="1">
          <mxGeometry x="395" y="610" width="120" height="60" as="geometry" />
        </mxCell>
        <mxCell id="fm_XVG5yvehOPJzPUMoo-7" value="Error Message" style="rounded=0;whiteSpace=wrap;html=1;" vertex="1" parent="1">
          <mxGeometry x="610" y="445" width="120" height="60" as="geometry" />
        </mxCell>
        <mxCell id="fm_XVG5yvehOPJzPUMoo-26" style="edgeStyle=orthogonalEdgeStyle;rounded=0;orthogonalLoop=1;jettySize=auto;html=1;exitX=0.5;exitY=1;exitDx=0;exitDy=0;entryX=0.5;entryY=0;entryDx=0;entryDy=0;" edge="1" parent="1" source="fm_XVG5yvehOPJzPUMoo-19" target="fm_XVG5yvehOPJzPUMoo-6">
          <mxGeometry relative="1" as="geometry" />
        </mxCell>
        <mxCell id="fm_XVG5yvehOPJzPUMoo-29" value="True" style="edgeLabel;html=1;align=center;verticalAlign=middle;resizable=0;points=[];" vertex="1" connectable="0" parent="fm_XVG5yvehOPJzPUMoo-26">
          <mxGeometry x="-0.2571" relative="1" as="geometry">
            <mxPoint as="offset" />
          </mxGeometry>
        </mxCell>
        <mxCell id="fm_XVG5yvehOPJzPUMoo-28" style="edgeStyle=orthogonalEdgeStyle;rounded=0;orthogonalLoop=1;jettySize=auto;html=1;entryX=0;entryY=0.5;entryDx=0;entryDy=0;" edge="1" parent="1" source="fm_XVG5yvehOPJzPUMoo-19" target="fm_XVG5yvehOPJzPUMoo-7">
          <mxGeometry relative="1" as="geometry" />
        </mxCell>
        <mxCell id="fm_XVG5yvehOPJzPUMoo-30" value="False" style="edgeLabel;html=1;align=center;verticalAlign=middle;resizable=0;points=[];" vertex="1" connectable="0" parent="fm_XVG5yvehOPJzPUMoo-28">
          <mxGeometry x="-0.1" y="1" relative="1" as="geometry">
            <mxPoint as="offset" />
          </mxGeometry>
        </mxCell>
        <mxCell id="fm_XVG5yvehOPJzPUMoo-19" value="" style="rhombus;whiteSpace=wrap;html=1;" vertex="1" parent="1">
          <mxGeometry x="380" y="410" width="150" height="130" as="geometry" />
        </mxCell>
        <mxCell id="fm_XVG5yvehOPJzPUMoo-21" value="&lt;span style=&quot;color: rgba(0, 0, 0, 0); font-family: monospace; font-size: 0px; text-align: start; text-wrap-mode: nowrap;&quot;&gt;C3CmxGraphModel%3E%3Croot%3E%3CmxCell%20id%3D%220%22%2F%3E%3CmxCell%20id%3D%221%22%20parent%3D%220%22%2F%3E%3CmxCell%20id%3D%222%22%20value%3D%22Compare%20the%20sorted%20product%20file%20and%20merged%20file%22%20style%3D%22text%3Bhtml%3D1%3Balign%3Dcenter%3BverticalAlign%3Dmiddle%3BwhiteSpace%3Dwrap%3Brounded%3D0%3B%22%20vertex%3D%221%22%20parent%3D%221%22%3E%3CmxGeometry%20x%3D%22230%22%20y%3D%22490%22%20width%3D%2260%22%20height%3D%2230%22%20as%3D%22geometry%22%2F%3E%3C%2FmxCell%3E%3C%2Froot%3E%3C%2FmxGraphModel%3E&lt;/span&gt;&lt;span style=&quot;color: rgba(0, 0, 0, 0); font-family: monospace; font-size: 0px; text-align: start; text-wrap-mode: nowrap;&quot;&gt;%3CmxGraphModel%3E%3Croot%3E%3CmxCell%20id%3D%220%22%2F%3E%3CmxCell%20id%3D%221%22%20parent%3D%220%22%2F%3E%3CmxCell%20id%3D%222%22%20value%3D%22Compare%20the%20sorted%20product%20file%20and%20merged%20file%22%20style%3D%22text%3Bhtml%3D1%3Balign%3Dcenter%3BverticalAlign%3Dmiddle%3BwhiteSpace%3Dwrap%3Brounded%3D0%3B%22%20vertex%3D%221%22%20parent%3D%221%22%3E%3CmxGeometry%20x%3D%22230%22%20y%3D%22490%22%20width%3D%2260%22%20height%3D%2230%22%20as%3D%22geometry%22%2F%3E%3C%2FmxCell%3E%3C%2Froot%3E%3C%2FmxGraphModel%3E&lt;/span&gt;" style="text;html=1;align=center;verticalAlign=middle;whiteSpace=wrap;rounded=0;" vertex="1" parent="1">
          <mxGeometry x="425" y="450" width="60" height="30" as="geometry" />
        </mxCell>
        <mxCell id="fm_XVG5yvehOPJzPUMoo-22" value="Compare the sorted product file and merged file" style="text;html=1;align=center;verticalAlign=middle;whiteSpace=wrap;rounded=0;" vertex="1" parent="1">
          <mxGeometry x="425" y="465" width="60" height="30" as="geometry" />
        </mxCell>
      </root>
    </mxGraphModel>
  </diagram>
</mxfile>
